<?xml version="1.0" encoding="UTF-8" standalone="no"?><svg xmlns="http://www.w3.org/2000/svg" xmlns:xlink="http://www.w3.org/1999/xlink" contentScriptType="application/ecmascript" contentStyleType="text/css" height="547px" preserveAspectRatio="none" style="width:383px;height:547px;background:#FFFFFF;" version="1.1" viewBox="0 0 383 547" width="383px" zoomAndPan="magnify"><defs><filter height="300%" id="f10zuxgcdjyvvx" width="300%" x="-1" y="-1"><feGaussianBlur result="blurOut" stdDeviation="2.0"/><feColorMatrix in="blurOut" result="blurOut2" type="matrix" values="0 0 0 0 0 0 0 0 0 0 0 0 0 0 0 0 0 0 .4 0"/><feOffset dx="4.0" dy="4.0" in="blurOut2" result="blurOut3"/><feBlend in="SourceGraphic" in2="blurOut3" mode="normal"/></filter></defs><g><!--MD5=[cb464989aed0c92ff59fc3165cc73d82]
cluster RabbitMQ Cluster--><rect fill="#FFFFFF" filter="url(#f10zuxgcdjyvvx)" height="77" style="stroke:#000000;stroke-width:1.5;" width="364" x="7" y="366.5"/><path d="M146,366.5 L146,375.9883 L136,385.9883 L7,385.9883 " fill="none" style="stroke:#000000;stroke-width:1.5;"/><text fill="#000000" font-family="sans-serif" font-size="14" font-weight="bold" lengthAdjust="spacing" textLength="129" x="10" y="381.0352">RabbitMQ Cluster</text><!--MD5=[b715e21e4b36457c82624b259f0e13ea]
entity mq1--><path d="M28.5,401.5 L105.5,401.5 C110.5,401.5 110.5,414.7441 110.5,414.7441 C110.5,414.7441 110.5,427.9883 105.5,427.9883 L28.5,427.9883 C23.5,427.9883 23.5,414.7441 23.5,414.7441 C23.5,414.7441 23.5,401.5 28.5,401.5 " fill="#FEFECE" filter="url(#f10zuxgcdjyvvx)" style="stroke:#A80036;stroke-width:1.5;"/><path d="M105.5,401.5 C100.5,401.5 100.5,414.7441 100.5,414.7441 C100.5,427.9883 105.5,427.9883 105.5,427.9883 " fill="none" style="stroke:#A80036;stroke-width:1.5;"/><text fill="#000000" font-family="sans-serif" font-size="14" lengthAdjust="spacing" textLength="67" x="28.5" y="420.0352">RabbitMQ</text><!--MD5=[92e7ba533d50617940b65c2c612e9cc7]
entity mq2--><path d="M272.5,401.5 L349.5,401.5 C354.5,401.5 354.5,414.7441 354.5,414.7441 C354.5,414.7441 354.5,427.9883 349.5,427.9883 L272.5,427.9883 C267.5,427.9883 267.5,414.7441 267.5,414.7441 C267.5,414.7441 267.5,401.5 272.5,401.5 " fill="#FEFECE" filter="url(#f10zuxgcdjyvvx)" style="stroke:#A80036;stroke-width:1.5;"/><path d="M349.5,401.5 C344.5,401.5 344.5,414.7441 344.5,414.7441 C344.5,427.9883 349.5,427.9883 349.5,427.9883 " fill="none" style="stroke:#A80036;stroke-width:1.5;"/><text fill="#000000" font-family="sans-serif" font-size="14" lengthAdjust="spacing" textLength="67" x="272.5" y="420.0352">RabbitMQ</text><!--MD5=[946054d2b58e673468857b404523e8ff]
entity mq3--><path d="M150.5,401.5 L227.5,401.5 C232.5,401.5 232.5,414.7441 232.5,414.7441 C232.5,414.7441 232.5,427.9883 227.5,427.9883 L150.5,427.9883 C145.5,427.9883 145.5,414.7441 145.5,414.7441 C145.5,414.7441 145.5,401.5 150.5,401.5 " fill="#FEFECE" filter="url(#f10zuxgcdjyvvx)" style="stroke:#A80036;stroke-width:1.5;"/><path d="M227.5,401.5 C222.5,401.5 222.5,414.7441 222.5,414.7441 C222.5,427.9883 227.5,427.9883 227.5,427.9883 " fill="none" style="stroke:#A80036;stroke-width:1.5;"/><text fill="#000000" font-family="sans-serif" font-size="14" lengthAdjust="spacing" textLength="67" x="150.5" y="420.0352">RabbitMQ</text><!--MD5=[8fc3522a43f8c7199df5e09e5bb0188e]
entity user--><ellipse cx="189" cy="14" fill="#FEFECE" filter="url(#f10zuxgcdjyvvx)" rx="8" ry="8" style="stroke:#A80036;stroke-width:1.5;"/><path d="M189,22 L189,49 M176,30 L202,30 M189,49 L176,64 M189,49 L202,64 " fill="none" filter="url(#f10zuxgcdjyvvx)" style="stroke:#A80036;stroke-width:1.5;"/><text fill="#000000" font-family="sans-serif" font-size="14" lengthAdjust="spacing" textLength="31" x="173.5" y="83.0352">User</text><!--MD5=[b8126c81252de049c824a7564d46b033]
entity lb--><ellipse cx="189" cy="190.5" fill="#FEFECE" filter="url(#f10zuxgcdjyvvx)" rx="8" ry="8" style="stroke:#A80036;stroke-width:1.5;"/><text fill="#000000" font-family="sans-serif" font-size="14" lengthAdjust="spacing" textLength="95" x="141.5" y="221.0352">Load Balancer</text><text fill="#000000" font-family="sans-serif" font-size="14" lengthAdjust="spacing" textLength="51" x="141.5" y="237.5234">(Nginx)</text><!--MD5=[8c8bda67b357e7a13be8bb0ed64fbd22]
entity ss1--><rect fill="#FEFECE" filter="url(#f10zuxgcdjyvvx)" height="46.4883" style="stroke:#A80036;stroke-width:1.5;" width="151" x="20.5" y="295.5"/><rect fill="#FEFECE" height="10" style="stroke:#A80036;stroke-width:1.5;" width="15" x="151.5" y="300.5"/><rect fill="#FEFECE" height="2" style="stroke:#A80036;stroke-width:1.5;" width="4" x="149.5" y="302.5"/><rect fill="#FEFECE" height="2" style="stroke:#A80036;stroke-width:1.5;" width="4" x="149.5" y="306.5"/><text fill="#000000" font-family="sans-serif" font-size="14" lengthAdjust="spacing" textLength="111" x="35.5" y="329.0352">supplier-service</text><!--MD5=[948a53c5e5ab78a9cbc830bf6e2c6cac]
entity ss2--><rect fill="#FEFECE" filter="url(#f10zuxgcdjyvvx)" height="46.4883" style="stroke:#A80036;stroke-width:1.5;" width="151" x="206.5" y="295.5"/><rect fill="#FEFECE" height="10" style="stroke:#A80036;stroke-width:1.5;" width="15" x="337.5" y="300.5"/><rect fill="#FEFECE" height="2" style="stroke:#A80036;stroke-width:1.5;" width="4" x="335.5" y="302.5"/><rect fill="#FEFECE" height="2" style="stroke:#A80036;stroke-width:1.5;" width="4" x="335.5" y="306.5"/><text fill="#000000" font-family="sans-serif" font-size="14" lengthAdjust="spacing" textLength="111" x="221.5" y="329.0352">supplier-service</text><!--MD5=[34b17b1ae261c273bf6c9d83d06925a6]
entity cs1--><rect fill="#FEFECE" filter="url(#f10zuxgcdjyvvx)" height="46.4883" style="stroke:#A80036;stroke-width:1.5;" width="163" x="8.5" y="487.5"/><rect fill="#FEFECE" height="10" style="stroke:#A80036;stroke-width:1.5;" width="15" x="151.5" y="492.5"/><rect fill="#FEFECE" height="2" style="stroke:#A80036;stroke-width:1.5;" width="4" x="149.5" y="494.5"/><rect fill="#FEFECE" height="2" style="stroke:#A80036;stroke-width:1.5;" width="4" x="149.5" y="498.5"/><text fill="#000000" font-family="sans-serif" font-size="14" lengthAdjust="spacing" textLength="123" x="23.5" y="521.0352">consumer-service</text><!--MD5=[778d59aea12c8947f7008d0d0576d5db]
entity cs2--><rect fill="#FEFECE" filter="url(#f10zuxgcdjyvvx)" height="46.4883" style="stroke:#A80036;stroke-width:1.5;" width="163" x="206.5" y="487.5"/><rect fill="#FEFECE" height="10" style="stroke:#A80036;stroke-width:1.5;" width="15" x="349.5" y="492.5"/><rect fill="#FEFECE" height="2" style="stroke:#A80036;stroke-width:1.5;" width="4" x="347.5" y="494.5"/><rect fill="#FEFECE" height="2" style="stroke:#A80036;stroke-width:1.5;" width="4" x="347.5" y="498.5"/><text fill="#000000" font-family="sans-serif" font-size="14" lengthAdjust="spacing" textLength="123" x="221.5" y="521.0352">consumer-service</text><!--MD5=[b67e7812937ad285de92723bfd481ae8]
link user to lb--><path d="M189,85.59 C189,115.77 189,155.52 189,176.01 " fill="none" id="user-to-lb" style="stroke:#A80036;stroke-width:1.0;"/><polygon fill="#A80036" points="189,181.25,193,172.25,189,176.25,185,172.25,189,181.25" style="stroke:#A80036;stroke-width:1.0;"/><!--MD5=[2137dec5702f45c967e9f51eff4244b0]
link lb to ss1--><path d="M182.9,199.77 C169.42,218.03 136.61,262.48 115.39,291.23 " fill="none" id="lb-to-ss1" style="stroke:#A80036;stroke-width:1.0;"/><polygon fill="#A80036" points="112.35,295.35,120.9196,290.496,115.3248,291.3312,114.4895,285.7363,112.35,295.35" style="stroke:#A80036;stroke-width:1.0;"/><!--MD5=[becd76ecb573d8fcb178c00b06b3c72b]
link lb to ss2--><path d="M195.1,199.77 C208.58,218.03 241.39,262.48 262.61,291.23 " fill="none" id="lb-to-ss2" style="stroke:#A80036;stroke-width:1.0;"/><polygon fill="#A80036" points="265.65,295.35,263.5105,285.7363,262.6752,291.3312,257.0804,290.496,265.65,295.35" style="stroke:#A80036;stroke-width:1.0;"/><!--MD5=[2b0f9c515a90c363d1088fa051d1706b]
link ss1 to mq1--><path d="M89.13,341.78 C83.95,358.56 76.96,381.21 72.23,396.54 " fill="none" id="ss1-to-mq1" style="stroke:#A80036;stroke-width:1.0;"/><polygon fill="#A80036" points="70.72,401.43,77.1883,394.003,72.1894,396.6508,69.5416,391.6519,70.72,401.43" style="stroke:#A80036;stroke-width:1.0;"/><!--MD5=[8f80ecfd94d40a82fb062ed6116ad0c4]
link ss1 to mq2--><path d="M171.84,337.87 C208.8,346.97 246.17,356.45 250,358.5 C268.3,368.28 285.51,384.72 296.95,397.08 " fill="none" id="ss1-to-mq2" style="stroke:#A80036;stroke-width:1.0;"/><polygon fill="#A80036" points="300.61,401.1,297.5247,391.7469,297.2502,397.3971,291.6,397.1226,300.61,401.1" style="stroke:#A80036;stroke-width:1.0;"/><!--MD5=[5fa1ce02ef7051ce888146468720580d]
link ss1 to mq3--><path d="M118.04,341.78 C135.07,358.99 158.23,382.4 173.39,397.72 " fill="none" id="ss1-to-mq3" style="stroke:#A80036;stroke-width:1.0;"/><polygon fill="#A80036" points="177.06,401.43,173.5802,392.2164,173.546,397.8731,167.8892,397.8388,177.06,401.43" style="stroke:#A80036;stroke-width:1.0;"/><!--MD5=[82f176fba622f6924e7c2502cbcada1d]
link ss2 to mq1--><path d="M206.16,337.87 C169.2,346.97 131.83,356.45 128,358.5 C109.7,368.28 92.49,384.72 81.05,397.08 " fill="none" id="ss2-to-mq1" style="stroke:#A80036;stroke-width:1.0;"/><polygon fill="#A80036" points="77.39,401.1,86.4,397.1226,80.7498,397.3971,80.4753,391.7469,77.39,401.1" style="stroke:#A80036;stroke-width:1.0;"/><!--MD5=[80bc66cbb74c0cd0109023c28915b94e]
link ss2 to mq2--><path d="M288.87,341.78 C294.05,358.56 301.04,381.21 305.77,396.54 " fill="none" id="ss2-to-mq2" style="stroke:#A80036;stroke-width:1.0;"/><polygon fill="#A80036" points="307.28,401.43,308.4584,391.6519,305.8106,396.6508,300.8117,394.003,307.28,401.43" style="stroke:#A80036;stroke-width:1.0;"/><!--MD5=[7b66c86f9ce2028c43a5bdb7f38f0fc3]
link ss2 to mq3--><path d="M259.96,341.78 C242.93,358.99 219.77,382.4 204.61,397.72 " fill="none" id="ss2-to-mq3" style="stroke:#A80036;stroke-width:1.0;"/><polygon fill="#A80036" points="200.94,401.43,210.1108,397.8388,204.454,397.8731,204.4198,392.2164,200.94,401.43" style="stroke:#A80036;stroke-width:1.0;"/><!--MD5=[cf041ed7237f1b26304b05d723e1d11d]
link mq1 to cs1--><path d="M70.01,427.79 C73.39,441.62 78.99,464.5 83.4,482.54 " fill="none" id="mq1-to-cs1" style="stroke:#A80036;stroke-width:1.0;"/><polygon fill="#A80036" points="84.61,487.49,86.3615,477.7981,83.4242,482.6326,78.5897,479.6954,84.61,487.49" style="stroke:#A80036;stroke-width:1.0;"/><!--MD5=[b519002a98dba9fe92c76841fb30e30f]
link mq1 to cs2--><path d="M85.47,427.62 C97.32,435.08 113.21,444.53 128,451.5 C155.17,464.31 186,476.09 213.29,485.64 " fill="none" id="mq1-to-cs2" style="stroke:#A80036;stroke-width:1.0;"/><polygon fill="#A80036" points="218.34,487.4,211.1512,480.6679,213.6169,485.7591,208.5257,488.2248,218.34,487.4" style="stroke:#A80036;stroke-width:1.0;"/><!--MD5=[f4aec22d201d4c12f1e30557ee6edf54]
link mq2 to cs1--><path d="M292.53,427.62 C280.68,435.08 264.79,444.53 250,451.5 C222.83,464.31 192,476.09 164.71,485.64 " fill="none" id="mq2-to-cs1" style="stroke:#A80036;stroke-width:1.0;"/><polygon fill="#A80036" points="159.66,487.4,169.4743,488.2248,164.3831,485.7591,166.8488,480.6679,159.66,487.4" style="stroke:#A80036;stroke-width:1.0;"/><!--MD5=[8c26d69d0887f357d71a541548ca3238]
link mq2 to cs2--><path d="M307.99,427.79 C304.61,441.62 299.01,464.5 294.6,482.54 " fill="none" id="mq2-to-cs2" style="stroke:#A80036;stroke-width:1.0;"/><polygon fill="#A80036" points="293.39,487.49,299.4103,479.6954,294.5758,482.6326,291.6385,477.7981,293.39,487.49" style="stroke:#A80036;stroke-width:1.0;"/><!--MD5=[7d5659e745e9e136d2278fd853a8db37]
link mq3 to cs1--><path d="M176.06,427.79 C161.12,441.97 136.15,465.68 116.94,483.92 " fill="none" id="mq3-to-cs1" style="stroke:#A80036;stroke-width:1.0;"/><polygon fill="#A80036" points="113.18,487.49,122.462,484.197,116.8071,484.0485,116.9556,478.3936,113.18,487.49" style="stroke:#A80036;stroke-width:1.0;"/><!--MD5=[558e6b0244067127e9cf40467aab8a0d]
link mq3 to cs2--><path d="M201.94,427.79 C216.88,441.97 241.85,465.68 261.06,483.92 " fill="none" id="mq3-to-cs2" style="stroke:#A80036;stroke-width:1.0;"/><polygon fill="#A80036" points="264.82,487.49,261.0444,478.3936,261.1929,484.0485,255.538,484.197,264.82,487.49" style="stroke:#A80036;stroke-width:1.0;"/><!--MD5=[9a7db6bdde7ef16f5f60686a38f5f002]
@startuml diagram2

actor User as user
circle "Load Balancer\n(Nginx)" as lb
component "supplier-service" as ss1
component "supplier-service" as ss2
frame "RabbitMQ Cluster" {
    queue "RabbitMQ" as mq1
    queue "RabbitMQ" as mq2
    queue "RabbitMQ" as mq3
}
component "consumer-service" as cs1
component "consumer-service" as cs2

user - -> lb

lb - -> ss1
lb - -> ss2

ss1 - -> mq1
ss1 - -> mq2
ss1 - -> mq3
ss2 - -> mq1
ss2 - -> mq2
ss2 - -> mq3

mq1 - -> cs1
mq1 - -> cs2
mq2 - -> cs1
mq2 - -> cs2
mq3 - -> cs1
mq3 - -> cs2

@enduml

PlantUML version 1.2021.7(Sun May 23 21:40:07 JST 2021)
(GPL source distribution)
Java Runtime: OpenJDK Runtime Environment
JVM: OpenJDK 64-Bit Server VM
Default Encoding: UTF-8
Language: ja
Country: JP
--></g></svg>